<?xml version="1.0" encoding="UTF-8" standalone="no"?>
<!DOCTYPE svg PUBLIC "-//W3C//DTD SVG 20010904//EN"
              "http://www.w3.org/TR/2001/REC-SVG-20010904/DTD/svg10.dtd">

<svg xmlns="http://www.w3.org/2000/svg"
     width="11.1111in" height="11.1111in"
     viewBox="0 0 800 800">
  <path id="K"
        fill="royalblue"
        d="M 365.05,135.20
           C 369.95,115.41 375.20,99.00 380.80,85.95
             386.40,72.90 392.82,62.65 400.05,55.20
             407.29,47.75 415.80,41.92 425.59,37.72
             432.59,34.47 437.14,31.80 439.25,29.70
             441.35,27.60 441.47,25.15 439.59,22.34
             425.13,15.82 408.80,10.47 390.59,6.28
             372.39,2.09 353.50,0.00 333.91,0.00
             297.97,0.00 266.70,5.95 240.09,17.83
             213.50,29.70 192.15,45.66 176.05,65.69
             159.95,85.71 149.10,108.89 143.50,135.22
             137.89,161.54 138.36,189.14 144.91,218.02
             146.30,220.35 147.93,221.05 149.80,220.12
             151.66,219.19 152.59,217.55 152.59,215.22
             147.00,188.21 146.54,162.95 151.20,139.42
             155.87,115.89 165.08,95.51 178.84,78.28
             192.61,61.04 210.46,47.41 232.39,37.39
             254.33,27.37 279.77,22.36 308.70,22.36
             327.84,22.36 345.57,23.88 361.91,26.91
             378.24,29.93 392.47,33.77 404.59,38.44
             395.26,43.56 386.62,50.09 378.69,58.00
             370.76,65.92 363.30,77.21 356.30,91.89
             349.30,106.57 342.64,125.09 336.34,147.45
             330.05,169.81 323.87,197.75 317.80,231.28
             311.27,267.62 302.28,298.48 290.84,323.88
             279.41,349.26 265.30,369.88 248.50,385.72
             231.70,401.55 212.21,413.08 190.05,420.30
             167.88,427.52 142.56,431.12 114.09,431.12
             85.63,431.12 63.59,424.02 47.95,409.81
             32.32,395.61 24.50,377.32 24.50,354.97
             24.50,340.53 27.77,327.38 34.30,315.50
             40.83,303.62 50.16,294.41 62.30,287.89
             63.23,286.03 63.35,284.40 62.64,283.00
             61.94,281.61 60.20,280.91 57.41,280.91
             49.00,285.09 41.18,290.45 33.94,296.97
             26.71,303.49 20.64,310.95 15.75,319.33
             10.85,327.71 7.00,336.68 4.20,346.23
             1.40,355.79 0.00,365.22 0.00,374.53
             0.00,395.97 7.70,413.91 23.09,428.34
             38.50,442.78 62.77,450.00 95.91,450.00
             127.63,450.00 157.50,444.88 185.50,434.62
             213.50,424.38 238.58,409.12 260.75,388.86
             282.91,368.60 301.70,343.33 317.09,313.05
             332.50,282.76 343.70,247.59 350.70,207.53
             355.37,179.11 360.15,155.00 365.05,135.20 Z
           M 452.55,125.78
           C 472.38,105.28 491.86,87.70 511.00,73.03
             530.13,58.36 548.33,46.95 565.59,38.80
             582.86,30.64 598.03,26.56 611.09,26.56
             626.50,26.56 636.88,30.64 642.25,38.80
             647.61,46.95 649.13,56.61 646.80,67.78
             647.27,69.65 648.20,70.81 649.59,71.28
             651.00,71.75 652.40,71.28 653.80,69.88
             657.07,62.42 659.29,56.01 660.45,50.66
             661.62,45.30 662.20,39.37 662.20,32.84
             662.20,23.05 659.40,15.13 653.80,9.08
             648.20,3.03 641.44,0.00 633.50,0.00
             615.77,0.00 596.41,5.24 575.41,15.72
             554.41,26.20 532.70,40.29 510.30,58.00
             487.90,75.70 465.38,96.66 442.75,120.89
             420.11,145.11 398.30,170.73 377.30,197.75
             374.04,202.41 373.10,207.07 374.50,211.73
             382.44,243.40 391.19,273.68 400.75,302.56
             410.31,331.44 421.39,356.83 434.00,378.73
             446.60,400.63 461.07,417.98 477.41,430.80
             493.74,443.60 512.63,450.00 534.09,450.00
             552.30,450.00 567.59,445.69 579.95,437.06
             592.32,428.44 602.00,417.60 609.00,404.55
             609.47,402.23 609.00,400.37 607.59,398.97
             606.20,397.56 604.80,397.56 603.41,398.95
             598.27,407.35 591.38,414.23 582.75,419.59
             574.11,424.95 564.66,427.62 554.41,427.62
             534.33,427.62 516.59,422.27 501.19,411.56
             485.79,400.86 472.02,385.37 459.89,365.09
             447.77,344.82 436.57,320.14 426.30,291.03
             416.04,261.92 405.77,229.20 395.50,192.86
             413.70,168.64 432.71,146.28 452.55,125.78 Z" />
  <path id="T"
        fill="royalblue"
        d="M 685.66,362.23
           C 644.82,354.08 599.44,350.00 549.50,350.00
             515.89,350.00 486.73,355.12 462.00,365.38
             437.27,375.62 417.20,389.36 401.80,406.61
             386.40,423.85 375.55,443.42 369.25,465.31
             362.95,487.21 361.20,509.57 364.00,532.41
             366.33,536.14 368.90,535.90 371.70,531.70
             368.90,510.75 370.53,490.60 376.59,471.27
             382.66,451.92 392.47,435.03 406.00,420.59
             419.53,406.15 436.45,394.62 456.75,386.00
             477.05,377.38 500.27,373.06 526.41,373.06
             559.53,373.06 592.89,375.39 626.50,380.05
             660.10,384.70 692.54,391.00 723.80,398.92
             694.40,406.85 668.04,426.77 644.70,458.69
             621.37,490.59 601.30,532.64 584.50,584.81
             572.36,622.09 559.64,653.07 546.34,677.77
             533.05,702.46 518.59,722.15 502.95,736.83
             487.32,751.51 470.16,761.87 451.50,767.92
             432.83,773.98 412.30,777.00 389.91,777.00
             357.24,777.00 332.62,770.13 316.05,756.39
             299.48,742.64 291.20,723.89 291.20,700.12
             291.20,689.42 292.72,681.15 295.75,675.33
             298.78,669.51 303.56,664.03 310.09,658.91
             311.03,657.50 311.27,655.87 310.80,654.00
             310.33,652.14 309.16,651.20 307.30,651.20
             279.77,669.84 266.00,693.14 266.00,721.09
             266.00,730.89 267.86,740.56 271.59,750.11
             275.33,759.66 281.16,768.05 289.09,775.27
             297.03,782.48 307.07,788.31 319.20,792.73
             331.34,797.16 345.80,799.38 362.59,799.38
             423.73,799.38 475.88,779.70 519.05,740.33
             562.21,700.96 595.93,641.91 620.20,563.16
             636.54,509.59 654.97,470.34 675.50,445.41
             696.03,420.48 719.36,406.85 745.50,404.52
             751.56,405.91 757.39,407.43 763.00,409.06
             768.60,410.69 774.20,412.43 779.80,414.30
             783.54,415.70 789.13,411.04 796.59,400.31
             799.86,396.12 800.10,392.63 797.30,389.83
             763.70,379.59 726.49,370.39 685.66,362.23 Z" />
</svg>
